HIERARCHY
ROOT Hips
{
	OFFSET 0.000000 83.214638 0.000000
	CHANNELS 6 Xposition Yposition Zposition Xrotation Yrotation Zrotation
	JOINT Pelvis
	{
		OFFSET 0.000000 0.000000 0.000000
		CHANNELS 3 Xrotation Yrotation Zrotation
		JOINT LeftUpLeg
		{
			OFFSET 8.479700 -4.795502 -0.379100
			CHANNELS 3 Xrotation Yrotation Zrotation
			JOINT LeftLeg
			{
				OFFSET 0.024144 -32.555107 0.112900
				CHANNELS 3 Xrotation Yrotation Zrotation
				JOINT LeftFoot
				{
					OFFSET -0.024144 -32.638630 -3.012600
					CHANNELS 3 Xrotation Yrotation Zrotation
					JOINT LeftToeBase
					{
						OFFSET 0.970200 -13.225400 11.864200
						CHANNELS 3 Xrotation Yrotation Zrotation
						End Site
						{
							OFFSET 0.000000 12.319262 0.000000
						}
					}
					JOINT LFootTongue
					{
						OFFSET 1.142400 -1.059800 6.665200
						CHANNELS 3 Xrotation Yrotation Zrotation
						End Site
						{
							OFFSET 0.000000 12.319262 0.000000
						}
					}
				}
				JOINT LeftPantLeg
				{
					OFFSET 0.918482 -16.533964 -2.284700
					CHANNELS 3 Xrotation Yrotation Zrotation
					End Site
					{
						OFFSET 0.350399 24.744368 0.000000
					}
				}
			}
		}
		JOINT RightUpLeg
		{
			OFFSET -8.479700 -4.795502 -0.379100
			CHANNELS 3 Xrotation Yrotation Zrotation
			JOINT RightLeg
			{
				OFFSET -0.023144 -32.555092 0.112900
				CHANNELS 3 Xrotation Yrotation Zrotation
				JOINT RightFoot
				{
					OFFSET 0.023144 -32.638641 -3.012700
					CHANNELS 3 Xrotation Yrotation Zrotation
					JOINT RightToeBase
					{
						OFFSET -0.970200 -13.225400 11.864200
						CHANNELS 3 Xrotation Yrotation Zrotation
						End Site
						{
							OFFSET 0.000000 12.319244 0.000000
						}
					}
					JOINT RFootTongue
					{
						OFFSET -1.142200 -1.059800 6.665200
						CHANNELS 3 Xrotation Yrotation Zrotation
						End Site
						{
							OFFSET 0.000000 12.319243 0.000000
						}
					}
				}
				JOINT RightPantLeg
				{
					OFFSET -0.919482 -16.533978 -2.284800
					CHANNELS 3 Xrotation Yrotation Zrotation
					End Site
					{
						OFFSET -0.350400 24.744419 0.000000
					}
				}
			}
		}
	}
	JOINT Spine
	{
		OFFSET 0.000000 7.722000 1.166200
		CHANNELS 3 Xrotation Yrotation Zrotation
		JOINT Spine1
		{
			OFFSET 0.000000 12.024101 0.248800
			CHANNELS 3 Xrotation Yrotation Zrotation
			JOINT Spine2
			{
				OFFSET 0.000000 11.502998 -0.491200
				CHANNELS 3 Xrotation Yrotation Zrotation
				JOINT Neck
				{
					OFFSET 0.000000 18.430702 -3.123100
					CHANNELS 3 Xrotation Yrotation Zrotation
					JOINT Head
					{
						OFFSET 0.000000 9.051102 1.034000
						CHANNELS 3 Xrotation Yrotation Zrotation
						JOINT HairB
						{
							OFFSET 0.208400 24.786102 24.822300
							CHANNELS 3 Xrotation Yrotation Zrotation
							End Site
							{
								OFFSET 0.000000 32.263779 0.000000
							}
						}
						JOINT HairA
						{
							OFFSET -7.081100 24.428299 23.196600
							CHANNELS 3 Xrotation Yrotation Zrotation
							End Site
							{
								OFFSET 0.000000 32.263779 0.000000
							}
						}
						JOINT Hat
						{
							OFFSET 16.728800 15.048294 -15.439601
							CHANNELS 3 Xrotation Yrotation Zrotation
							End Site
							{
								OFFSET 0.000000 32.263779 0.000000
							}
						}
					}
				}
				JOINT LeftShoulder
				{
					OFFSET 6.197800 13.665199 -4.064700
					CHANNELS 3 Xrotation Yrotation Zrotation
					JOINT LeftArm
					{
						OFFSET 7.778100 -0.187103 -1.709300
						CHANNELS 3 Xrotation Yrotation Zrotation
						JOINT LeftForeArm
						{
							OFFSET 22.049376 0.000000 0.000000
							CHANNELS 3 Xrotation Yrotation Zrotation
							JOINT LeftHand
							{
								OFFSET 23.009392 0.000000 0.000000
								CHANNELS 3 Xrotation Yrotation Zrotation
								JOINT LeftHandThumb1
								{
									OFFSET 3.507191 -2.063065 3.133727
									CHANNELS 3 Xrotation Yrotation Zrotation
									JOINT LeftHandThumb2
									{
										OFFSET 3.101337 -1.790558 1.790558
										CHANNELS 3 Xrotation Yrotation Zrotation
										JOINT LeftHandThumb3
										{
											OFFSET 3.058640 -1.765907 1.765906
											CHANNELS 3 Xrotation Yrotation Zrotation
											End Site
											{
												OFFSET -0.415260 3.926476 -0.049563
											}
										}
									}
								}
								JOINT LeftHandIndex1
								{
									OFFSET 11.334419 -0.901459 3.706815
									CHANNELS 3 Xrotation Yrotation Zrotation
									JOINT LeftHandIndex2
									{
										OFFSET 3.283112 0.000000 0.000000
										CHANNELS 3 Xrotation Yrotation Zrotation
										JOINT LeftHandIndex3
										{
											OFFSET 3.323853 0.000000 0.000000
											CHANNELS 3 Xrotation Yrotation Zrotation
											End Site
											{
												OFFSET -1.135597 3.097809 0.402452
											}
										}
									}
								}
								JOINT LeftHandMiddle1
								{
									OFFSET 11.335861 0.000000 0.000000
									CHANNELS 3 Xrotation Yrotation Zrotation
									JOINT LeftHandMiddle2
									{
										OFFSET 3.410492 0.000000 0.000000
										CHANNELS 3 Xrotation Yrotation Zrotation
										JOINT LeftHandMiddle3
										{
											OFFSET 3.312172 0.000000 0.000000
											CHANNELS 3 Xrotation Yrotation Zrotation
											End Site
											{
												OFFSET -1.150200 3.080154 0.400270
											}
										}
									}
								}
								JOINT LeftHandRing1
								{
									OFFSET 11.514786 -0.013176 -3.003090
									CHANNELS 3 Xrotation Yrotation Zrotation
									JOINT LeftHandRing2
									{
										OFFSET 3.053307 0.000000 0.000000
										CHANNELS 3 Xrotation Yrotation Zrotation
										JOINT LeftHandRing3
										{
											OFFSET 3.295807 0.000000 0.000000
											CHANNELS 3 Xrotation Yrotation Zrotation
											End Site
											{
												OFFSET -1.281006 3.013344 0.375733
											}
										}
									}
								}
								JOINT LeftHandPinky1
								{
									OFFSET 10.518692 -0.960396 -5.730441
									CHANNELS 3 Xrotation Yrotation Zrotation
									JOINT LeftHandPinky2
									{
										OFFSET 2.861649 0.000000 0.000000
										CHANNELS 3 Xrotation Yrotation Zrotation
										JOINT LeftHandPinky3
										{
											OFFSET 2.863380 0.000000 0.000000
											CHANNELS 3 Xrotation Yrotation Zrotation
											End Site
											{
												OFFSET -0.843597 2.711159 0.369971
											}
										}
									}
								}
							}
							JOINT LSleeve
							{
								OFFSET 6.676277 -0.344902 -1.011730
								CHANNELS 3 Xrotation Yrotation Zrotation
								End Site
								{
									OFFSET 0.000000 14.885353 0.000000
								}
							}
						}
					}
				}
				JOINT RightShoulder
				{
					OFFSET -6.197800 13.665199 -4.064700
					CHANNELS 3 Xrotation Yrotation Zrotation
					JOINT RightArm
					{
						OFFSET -7.778100 -0.187103 -1.709300
						CHANNELS 3 Xrotation Yrotation Zrotation
						JOINT RightForeArm
						{
							OFFSET -22.049376 0.000000 0.000000
							CHANNELS 3 Xrotation Yrotation Zrotation
							JOINT RightHand
							{
								OFFSET -23.009392 0.000000 0.000000
								CHANNELS 3 Xrotation Yrotation Zrotation
								JOINT RightHandThumb1
								{
									OFFSET -3.507191 -2.063065 3.133727
									CHANNELS 3 Xrotation Yrotation Zrotation
									JOINT RightHandThumb2
									{
										OFFSET -3.101337 -1.790558 1.790558
										CHANNELS 3 Xrotation Yrotation Zrotation
										JOINT RightHandThumb3
										{
											OFFSET -3.058640 -1.765907 1.765906
											CHANNELS 3 Xrotation Yrotation Zrotation
											End Site
											{
												OFFSET 0.415260 3.926476 -0.049563
											}
										}
									}
								}
								JOINT RightHandIndex1
								{
									OFFSET -11.334419 -0.901459 3.706815
									CHANNELS 3 Xrotation Yrotation Zrotation
									JOINT RightHandIndex2
									{
										OFFSET -3.283112 0.000000 0.000000
										CHANNELS 3 Xrotation Yrotation Zrotation
										JOINT RightHandIndex3
										{
											OFFSET -3.323853 0.000000 0.000000
											CHANNELS 3 Xrotation Yrotation Zrotation
											End Site
											{
												OFFSET 1.135597 3.097809 0.402452
											}
										}
									}
								}
								JOINT RightHandMiddle1
								{
									OFFSET -11.335861 0.000000 0.000000
									CHANNELS 3 Xrotation Yrotation Zrotation
									JOINT RightHandMiddle2
									{
										OFFSET -3.410492 0.000000 0.000000
										CHANNELS 3 Xrotation Yrotation Zrotation
										JOINT RightHandMiddle3
										{
											OFFSET -3.312172 0.000000 0.000000
											CHANNELS 3 Xrotation Yrotation Zrotation
											End Site
											{
												OFFSET 1.150200 3.080154 0.400270
											}
										}
									}
								}
								JOINT RightHandRing1
								{
									OFFSET -11.514786 -0.013176 -3.003090
									CHANNELS 3 Xrotation Yrotation Zrotation
									JOINT RightHandRing2
									{
										OFFSET -3.053307 0.000000 0.000000
										CHANNELS 3 Xrotation Yrotation Zrotation
										JOINT RightHandRing3
										{
											OFFSET -3.295807 0.000000 0.000000
											CHANNELS 3 Xrotation Yrotation Zrotation
											End Site
											{
												OFFSET 1.281006 3.013344 0.375733
											}
										}
									}
								}
								JOINT RightHandPinky1
								{
									OFFSET -10.518692 -0.960396 -5.730441
									CHANNELS 3 Xrotation Yrotation Zrotation
									JOINT RightHandPinky2
									{
										OFFSET -2.861649 0.000000 0.000000
										CHANNELS 3 Xrotation Yrotation Zrotation
										JOINT RightHandPinky3
										{
											OFFSET -2.863380 0.000000 0.000000
											CHANNELS 3 Xrotation Yrotation Zrotation
											End Site
											{
												OFFSET 0.843597 2.711159 0.369971
											}
										}
									}
								}
							}
							JOINT RSleeve
							{
								OFFSET -6.676277 -0.344902 -1.011730
								CHANNELS 3 Xrotation Yrotation Zrotation
								End Site
								{
									OFFSET 0.000000 14.885353 0.000000
								}
							}
						}
					}
				}
				JOINT Backpack
				{
					OFFSET 0.000000 -2.471497 36.677502
					CHANNELS 3 Xrotation Yrotation Zrotation
					End Site
					{
						OFFSET 0.000000 20.427315 0.000000
					}
				}
				JOINT Hood
				{
					OFFSET 0.000000 18.754097 -10.431000
					CHANNELS 3 Xrotation Yrotation Zrotation
					JOINT Hood1
					{
						OFFSET 0.000000 -5.011002 -7.685901
						CHANNELS 3 Xrotation Yrotation Zrotation
						End Site
						{
							OFFSET 0.000000 9.175140 0.000000
						}
					}
				}
				JOINT LHoodieString
				{
					OFFSET 5.250500 16.397697 3.089900
					CHANNELS 3 Xrotation Yrotation Zrotation
					JOINT LHoodieString1
					{
						OFFSET 0.257700 -6.364304 3.694600
						CHANNELS 3 Xrotation Yrotation Zrotation
						JOINT LHoodieString2
						{
							OFFSET 0.000000 -9.643799 2.679100
							CHANNELS 3 Xrotation Yrotation Zrotation
							End Site
							{
								OFFSET 0.000000 10.009018 0.000000
							}
						}
					}
				}
				JOINT RHoodieString
				{
					OFFSET -5.250500 16.397697 3.089900
					CHANNELS 3 Xrotation Yrotation Zrotation
					JOINT RHoodieString1
					{
						OFFSET -0.257700 -6.364304 3.694600
						CHANNELS 3 Xrotation Yrotation Zrotation
						JOINT RHoodieString2
						{
							OFFSET 0.000000 -9.643799 2.679100
							CHANNELS 3 Xrotation Yrotation Zrotation
							End Site
							{
								OFFSET 0.000000 10.009018 0.000000
							}
						}
					}
				}
			}
			JOINT LBackpack_Strap
			{
				OFFSET 15.223200 -7.719803 -6.610900
				CHANNELS 3 Xrotation Yrotation Zrotation
				End Site
				{
					OFFSET 0.000000 16.040596 0.000000
				}
			}
			JOINT RBackpack_Strap
			{
				OFFSET -15.223000 -7.719803 -6.610900
				CHANNELS 3 Xrotation Yrotation Zrotation
				End Site
				{
					OFFSET 0.000000 16.040596 0.000000
				}
			}
		}
	}
	JOINT BoyFacialAnim_Joint
	{
		OFFSET 1.000000 -82.208099 -1.550900
		CHANNELS 3 Xrotation Yrotation Zrotation
		End Site
		{
			OFFSET 0.000000 30.012791 0.000000
		}
	}
}
MOTION
Frames: 4
Frame Time: 0.016667
-1.341957 107.352921 244.414581 6.709193 -36.968925 19.553331 -0.000000 0.000001 0.000001 -91.187171 -21.132506 19.262725 103.864043 16.062469 6.607072 -10.576136 0.712329 4.824228 -0.000001 -0.000001 0.000004 -0.000001 -0.000001 0.000004 0.000000 -0.000000 0.000003 -92.604545 -25.580209 1.449232 108.750381 18.663101 4.247190 7.425220 5.022420 7.352843 -0.000000 0.000000 -0.000000 -0.000000 0.000000 -0.000000 -0.000001 -0.000001 -0.000003 36.570243 5.218711 -28.199379 10.113551 4.487079 -5.651612 17.344355 -0.255004 0.868256 -12.219179 18.249676 -13.297139 -37.838664 -7.524092 1.760361 -0.000000 -0.000000 -0.000000 -0.000000 -0.000000 -0.000000 -0.000000 -0.000000 -0.000000 3.460655 -8.918317 -0.904751 -83.626814 1.219636 -12.071367 -339.578318 -61.813116 -343.756454 -7.849528 9.865829 25.085412 17.551580 -5.699197 -12.932264 10.850573 26.127716 8.644760 -0.000000 0.000001 -0.000001 13.980899 1.201576 -55.004374 0.370825 1.161714 -65.441893 -0.000001 0.000000 -0.000002 7.504747 1.174530 -63.778517 1.807872 1.475661 -64.568012 0.000001 0.000001 0.000000 8.574303 2.179135 -75.148979 -0.207617 1.009280 -57.855063 -0.000000 0.000001 -0.000002 10.030085 13.637086 -84.750230 0.877144 0.062359 -64.595476 -0.000001 0.000002 -0.000001 -0.000000 0.000000 0.000000 7.814335 26.927345 -8.074469 -63.242709 -8.464372 33.803617 -75.905463 19.956805 56.360231 103.847774 -11.344603 -4.184670 -0.360669 0.058160 -0.543039 4.001303 -8.596751 -1.236481 0.000003 0.000002 -0.000002 1.178587 -0.282685 1.711510 -0.146679 -0.226850 7.547515 0.000000 0.000000 -0.000002 3.352585 -1.937785 -0.812889 0.311546 -0.271371 28.365057 -0.000003 0.000000 -0.000000 2.261848 -7.957677 2.165573 0.288136 -0.079119 26.161660 -0.000000 0.000001 -0.000001 1.961603 -6.393487 2.504507 0.531424 0.722190 34.300599 -0.000001 0.000002 -0.000003 -0.000001 -0.000002 -0.000001 -0.000003 0.000000 -0.000001 -0.000003 0.000000 -0.000001 -0.000003 0.000000 -0.000001 -0.000003 0.000000 -0.000001 -0.000003 0.000000 -0.000001 -0.000003 0.000000 -0.000001 -0.000003 0.000000 -0.000001 -0.000003 0.000000 -0.000001 -0.000003 0.000000 -0.000001 0.000003 -0.000000 -0.000000 0.000003 -0.000000 -0.000000 -0.000000 0.000001 0.000001 
-1.103600 107.061821 248.330826 8.210656 -36.709391 19.920535 -0.000000 0.000002 -0.000001 -90.282936 -20.201789 20.110071 101.314204 14.423466 6.556813 -10.779347 0.992118 3.163267 -0.000001 0.000000 0.000000 -0.000001 0.000000 0.000001 0.000000 0.000000 -0.000001 -92.839217 -25.143060 1.754398 100.684768 20.592120 7.030877 3.052948 4.285738 8.675363 0.000000 -0.000000 -0.000001 0.000000 -0.000000 -0.000001 0.000001 -0.000001 0.000002 36.280285 5.538051 -27.586407 10.417181 4.343068 -5.637414 17.590071 -0.300817 0.846439 -11.986763 17.712581 -13.403268 -38.648701 -7.453908 1.396194 0.000001 -0.000000 0.000000 0.000001 -0.000000 0.000000 0.000001 -0.000000 0.000000 3.732751 -8.938838 -0.897981 -82.664051 -0.098875 -10.383353 -346.709801 -62.155097 -350.113912 -8.715360 8.791299 25.759003 17.551580 -5.699190 -12.932265 10.850573 26.127712 8.644761 0.000001 -0.000000 -0.000001 13.980897 1.201579 -55.004367 0.370819 1.161719 -65.441893 -0.000001 0.000001 -0.000002 7.504747 1.174532 -63.778517 1.807871 1.475662 -64.568012 0.000002 0.000001 -0.000001 8.574303 2.179142 -75.148986 -0.207616 1.009284 -57.855063 0.000003 0.000002 -0.000004 10.030089 13.637086 -84.750237 0.877141 0.062357 -64.595476 0.000001 0.000001 0.000002 -0.000001 0.000000 0.000000 7.302793 26.569084 -6.881550 -60.118198 -8.940504 34.394121 -76.312734 20.173473 58.156609 101.670269 -13.677687 -5.595358 -0.360544 0.058148 -0.542843 4.001305 -8.596761 -1.236482 0.000000 0.000001 -0.000002 1.178581 -0.282255 0.826520 -0.148744 -0.225325 6.662552 -0.000001 -0.000003 0.000005 3.352639 -1.937394 -1.697910 0.311851 -0.272006 27.480085 -0.000000 -0.000002 0.000005 2.261804 -7.957279 1.280583 0.287412 -0.081019 25.276679 -0.000003 0.000001 -0.000001 1.961568 -6.393101 1.619546 0.531210 0.722500 33.415567 0.000000 -0.000001 -0.000002 -0.000001 -0.000004 -0.000001 -0.000001 0.000001 -0.000001 -0.000001 0.000001 -0.000001 -0.000001 0.000001 -0.000001 -0.000001 0.000001 -0.000001 -0.000001 0.000001 -0.000001 -0.000001 0.000000 -0.000000 -0.000001 0.000001 -0.000001 -0.000001 0.000001 -0.000001 -0.000001 0.000000 -0.000000 -0.000000 0.000000 -0.000000 -0.000000 0.000000 -0.000000 -0.000000 0.000002 -0.000001 
-0.903250 106.618942 252.384537 9.616057 -36.320579 20.241027 -0.000000 0.000000 -0.000000 -89.055415 -19.259943 19.992558 98.122771 14.205566 6.984017 -10.685524 1.316397 1.477397 -0.000000 -0.000000 -0.000000 -0.000000 -0.000000 0.000000 0.000000 0.000000 -0.000002 -91.346854 -23.025635 1.420060 90.215973 22.018493 11.279918 0.649909 3.333998 10.213897 -0.000000 0.000000 -0.000000 -0.000000 0.000000 -0.000000 -0.000002 -0.000000 -0.000003 35.793671 5.855735 -26.941283 10.724713 4.198466 -5.583331 17.800936 -0.342643 0.829324 -11.305833 16.957790 -13.348738 -39.456128 -7.132158 0.943233 0.000001 -0.000000 -0.000000 0.000001 -0.000000 -0.000000 0.000001 -0.000000 -0.000000 4.015677 -8.916286 -0.887797 -82.276766 -1.094244 -8.977280 -352.924863 -62.243644 -355.786084 -9.353972 7.465119 26.072475 17.551580 -5.699194 -12.932261 10.850573 26.127712 8.644759 0.000001 0.000002 -0.000001 13.980900 1.201580 -55.004371 0.370824 1.161718 -65.441893 -0.000001 0.000000 -0.000000 7.504748 1.174530 -63.778517 1.807874 1.475664 -64.568012 0.000002 -0.000002 -0.000000 8.574298 2.179138 -75.148986 -0.207620 1.009278 -57.855063 -0.000002 0.000004 0.000000 10.030085 13.637089 -84.750237 0.877141 0.062351 -64.595483 -0.000000 0.000001 -0.000004 -0.000001 0.000000 0.000000 6.746318 26.067560 -5.641312 -56.516475 -9.132689 35.083922 -76.680628 20.592534 59.887037 98.888995 -15.813114 -7.286359 -0.360439 0.058152 -0.542665 4.001314 -8.596729 -1.236493 -0.000000 0.000002 -0.000001 1.177313 -0.281989 0.225303 -0.150311 -0.224068 6.061328 -0.000001 0.000000 0.000000 3.352822 -1.937118 -2.299099 0.310510 -0.273211 26.878867 0.000003 -0.000001 -0.000000 2.261812 -7.956972 0.679373 0.286926 -0.082363 24.675479 -0.000005 -0.000000 0.000004 1.961566 -6.392798 1.018330 0.532395 0.723586 32.814401 -0.000002 0.000001 -0.000003 -0.000001 -0.000003 -0.000003 -0.000004 0.000000 -0.000000 -0.000004 0.000000 -0.000000 -0.000004 0.000000 -0.000000 -0.000004 0.000000 -0.000000 -0.000004 0.000000 -0.000000 -0.000002 0.000000 -0.000000 -0.000004 0.000000 -0.000000 -0.000004 0.000000 -0.000000 -0.000002 0.000000 -0.000000 -0.000001 0.000000 0.000000 -0.000001 0.000000 0.000000 -0.000000 0.000000 -0.000000 
-0.751539 106.026031 256.567688 10.894722 -35.807390 20.532411 -0.000001 -0.000001 -0.000000 -87.592948 -18.001438 19.753185 94.502648 14.574121 7.648002 -11.159088 1.568265 0.072984 -0.000000 0.000000 0.000004 -0.000000 0.000000 0.000004 -0.000001 0.000000 0.000003 -88.511834 -18.962448 1.732450 78.887681 20.829676 16.066729 1.202916 2.272512 11.800972 -0.000000 0.000002 -0.000003 -0.000000 0.000002 -0.000003 -0.000002 -0.000000 0.000000 35.123292 6.138964 -26.282527 11.018728 4.045009 -5.488547 17.963794 -0.390536 0.823574 -10.228567 16.066919 -13.225073 -40.188912 -6.646900 0.502568 0.000002 -0.000000 0.000000 0.000002 -0.000000 0.000000 0.000002 -0.000000 0.000000 4.292283 -8.864050 -0.877260 -82.115307 -1.901180 -7.653561 -358.213041 -62.124443 -360.712208 -10.044897 6.053076 26.102963 17.551580 -5.699197 -12.932263 10.850573 26.127717 8.644761 -0.000000 0.000002 0.000002 13.980897 1.201580 -55.004371 0.370827 1.161718 -65.441887 -0.000001 -0.000002 -0.000000 7.504745 1.174530 -63.778524 1.807873 1.475662 -64.568012 0.000002 -0.000000 0.000000 8.574300 2.179134 -75.148986 -0.207617 1.009281 -57.855063 0.000001 0.000001 -0.000002 10.030083 13.637086 -84.750230 0.877136 0.062355 -64.595476 0.000000 0.000003 0.000004 0.000001 -0.000001 -0.000000 6.167932 25.450304 -4.367978 -52.538286 -9.038832 35.874390 -76.979135 21.195487 61.458971 95.621508 -17.694162 -9.145824 -0.360332 0.058172 -0.542497 4.001296 -8.596766 -1.236522 0.000001 0.000003 -0.000001 1.177745 -0.281658 -0.050750 -0.149888 -0.223231 5.785274 -0.000003 -0.000000 0.000002 3.352986 -1.937013 -2.575183 0.309749 -0.272604 26.602832 0.000002 0.000000 -0.000000 2.262888 -7.956884 0.403474 0.287540 -0.082930 24.399406 -0.000001 -0.000004 0.000003 1.961580 -6.392695 0.742262 0.533003 0.724118 32.538270 -0.000004 -0.000003 -0.000004 -0.000001 0.000003 0.000002 -0.000001 0.000000 -0.000001 -0.000001 0.000000 -0.000001 -0.000001 0.000000 -0.000001 -0.000001 0.000000 -0.000001 -0.000001 0.000000 -0.000001 0.000000 0.000000 -0.000001 -0.000001 0.000000 -0.000001 -0.000001 0.000000 -0.000001 0.000000 0.000000 -0.000001 0.000000 -0.000000 -0.000000 0.000000 -0.000000 -0.000000 -0.000001 -0.000001 -0.000000 
